# xmcd CD database file
#
# Track frame offsets:
#	150
#	18151
#	33943
#	50406
#	65336
#	81771
#	92429
#	106190
#	122054
#	138328
#	155093
#	171828
#	184520
#
# Disc length: 2690 seconds
#
# Revision: 4
# Processed by: cddbd v1.5.2PL0 Copyright (c) Steve Scherf et al.
# Submitted via: CDex 1.51
#
DISCID=9b0a800d
DTITLE=Michel Delpech - Michel DELPECH ... and ...
DYEAR=2006
DGENRE=Chansons Francaises
TTITLE0=Quand j'étais chanteur  (avec Alain Souchon)
TTITLE1=Le Loir et Cher  (avec Francis Cabrel)
TTITLE2=Toutes les filles  (avec Hubert Mounier)
TTITLE3=Le chasseur  (avec Julien Clerc)
TTITLE4=Et Paul chantait ''Yesterday''  (avec Barbara Carlotti)
TTITLE5=Pour gagner des sous  (avec Pierre Vassiliu)
TTITLE6=Chez Laurette  (avec Bénabar)
TTITLE7=L'amour en wagon-lit  (avec Clarika)
TTITLE8=Pour un flirt  (avec Cali)
TTITLE9=30 manières de quitter une fille  (avec Michel Jonasz)
TTITLE10=Wight is wight  (avec Laurent Voulzy)
TTITLE11=Loin d'ici  (avec Alexandra Roos)
TTITLE12=Que Marianne était jolie  (avec ReadyMade FC)
EXTD=YEAR: 2006
EXTT0=
EXTT1=
EXTT2=
EXTT3=
EXTT4=
EXTT5=
EXTT6=
EXTT7=
EXTT8=
EXTT9=
EXTT10=
EXTT11=
EXTT12=
PLAYORDER=
